<?xml version="1.0" standalone="no"?><!DOCTYPE svg PUBLIC "-//W3C//DTD SVG 1.1//EN" "http://www.w3.org/Graphics/SVG/1.1/DTD/svg11.dtd"><svg t="1554993889135" class="icon" style="" viewBox="0 0 1024 1024" version="1.1" xmlns="http://www.w3.org/2000/svg" p-id="1603" xmlns:xlink="http://www.w3.org/1999/xlink" width="200" height="200"><defs><style type="text/css"></style></defs><path d="M85.480348 960.624601c-7.011694 0-14.08581-2.682086-19.452028-8.018627-10.732435-10.641361-10.732435-27.836999 0-38.47836L917.672858 71.843258c10.732435-10.610662 28.172643-10.610662 38.904055 0 10.732435 10.67206 10.732435 27.867698 0 38.539758L104.964098 952.605973C99.597881 957.942515 92.553441 960.624601 85.480348 960.624601L85.480348 960.624601z" p-id="1604" fill="#dfdfdf"></path><path d="M937.124885 960.6553c-7.073092 0-14.08581-2.65241-19.452028-7.957229L66.028321 110.383016c-10.732435-10.67206-10.732435-27.867698 0-38.539758 10.794857-10.610662 28.172643-10.610662 38.935778 0l851.612815 842.315054c10.732435 10.640338 10.732435 27.898397 0 38.538735C951.210695 958.00289 944.137603 960.6553 937.124885 960.6553L937.124885 960.6553z" p-id="1605" fill="#dfdfdf"></path></svg>